<svg width="45" height="34" viewBox="0 0 45 34" fill="none" xmlns="http://www.w3.org/2000/svg">
<path d="M44.2241 0H0.775862C0.347586 0 0 0.330391 0 0.73913V33.2609C0 33.6696 0.347586 34 0.775862 34H44.2241C44.6524 34 45 33.6696 45 33.2609V0.73913C45 0.330391 44.6524 0 44.2241 0ZM43.4483 32.5217H1.55172V1.47826H43.4483V32.5217Z" fill="#4353FF"/>
<path d="M12.4137 16.3628C14.7964 16.3628 16.7345 14.5165 16.7345 12.2473C16.7345 9.97672 14.7964 8.13037 12.4137 8.13037C10.0311 8.13037 8.09296 9.97672 8.09296 12.2466C8.09296 14.5165 10.0311 16.3628 12.4137 16.3628ZM12.4137 9.60863C13.9406 9.60863 15.1828 10.7927 15.1828 12.2466C15.1828 13.7005 13.9406 14.8845 12.4137 14.8845C10.8868 14.8845 9.64468 13.7012 9.64468 12.2473C9.64468 10.7935 10.8868 9.60863 12.4137 9.60863Z" fill="#4353FF"/>
<path d="M5.431 29.5653C5.61255 29.5653 5.79565 29.5047 5.94307 29.3812L18.5997 18.7658L26.5926 26.3796C26.896 26.6686 27.3863 26.6686 27.6897 26.3796C27.9931 26.0906 27.9931 25.6235 27.6897 25.3345L23.9601 21.7815L31.0833 14.3503L39.8203 21.9803C40.1361 22.256 40.6272 22.2353 40.9166 21.9345C41.206 21.6337 41.1851 21.1658 40.8685 20.8901L31.5582 12.7597C31.4061 12.6274 31.2036 12.5616 30.9995 12.566C30.7939 12.5749 30.6 12.6614 30.4611 12.8062L22.8623 20.7349L19.1824 17.2292C18.8922 16.9535 18.4282 16.9394 18.121 17.1967L4.91815 28.2711C4.59617 28.5408 4.56513 29.008 4.84832 29.3147C5.00195 29.481 5.21608 29.5653 5.431 29.5653Z" fill="#4353FF"/>
</svg>
