<svg width="20" height="27" viewBox="0 0 20 27" fill="none" xmlns="http://www.w3.org/2000/svg">
<path d="M15.5378 7.05933H7.93884V8.02127H15.5378V7.05933Z" fill="white"/>
<path d="M15.5378 9.46533H7.93884V10.4273H15.5378V9.46533Z" fill="white"/>
<path d="M15.5378 14.2771H7.93884V15.239H15.5378V14.2771Z" fill="white"/>
<path d="M15.47 19.0889H7.87103V20.0508H15.47V19.0889Z" fill="white"/>
<path d="M15.47 16.6831H7.87103V17.6451H15.47V16.6831Z" fill="white"/>
<path d="M15.47 11.8711H7.87103V12.833H15.47V11.8711Z" fill="white"/>
<path d="M15.5378 21.4949H7.93884V22.4568H15.5378V21.4949Z" fill="white"/>
<path d="M14.8785 1.74658V0H5.1214V1.74658H-1.1542e-07V27H20V1.74658H14.8785ZM14.8785 5.71159V4.87246H16.928V23.8743H3.07197V4.87246H5.12147V5.71159H14.8785ZM6.09953 0.961947H13.9004V4.74965H6.09953V0.961947ZM19.0219 26.0381H0.978126V2.70852H5.1214V3.91044H2.09378V24.8361H17.9061V3.91051H14.8785V2.70852H19.0218V26.0381H19.0219Z" fill="white"/>
<path d="M12.3778 2.37476H7.62225V3.3367H12.3778V2.37476Z" fill="white"/>
<path d="M3.63953 8.33619L5.23029 9.9007L7.3283 7.83739L6.63663 7.15723L5.23029 8.54025L4.33119 7.65603L3.63953 8.33619Z" fill="white"/>
<path d="M5.23029 14.6648L4.33119 13.7805L3.63953 14.4607L5.23029 16.0252L7.3283 13.9619L6.63663 13.2817L5.23029 14.6648Z" fill="white"/>
<path d="M6.45226 19.0652L5.48391 20.0174L4.51564 19.0652L3.82404 19.7453L4.79231 20.6977L3.82404 21.6499L4.51564 22.3301L5.48391 21.3778L6.45226 22.3301L7.14386 21.6499L6.17558 20.6977L7.14386 19.7453L6.45226 19.0652Z" fill="white"/>
</svg>
