<svg width="21" height="21" viewBox="0 0 21 21" fill="none" xmlns="http://www.w3.org/2000/svg">
<path d="M10.4655 11.7854C13.569 11.7854 16.0862 9.14224 16.0862 5.88364C16.0862 2.62504 13.569 -1.49289e-09 10.4655 -1.49289e-09C7.36211 -1.49289e-09 4.84485 2.64312 4.84485 5.88364C4.84485 9.12416 7.36207 11.7854 10.4655 11.7854ZM10.4655 1.5388C12.7414 1.5388 14.6035 3.49396 14.6035 5.88364C14.6035 8.27332 12.7414 10.2284 10.4655 10.2284C8.18969 10.2284 6.32759 8.27328 6.32759 5.8836C6.32759 3.49392 8.18965 1.5388 10.4655 1.5388Z" fill="white"/>
<path d="M0.741372 20.9999H20.2586C20.6724 20.9999 21 20.6559 21 20.2215C21 16.1482 17.8448 12.8171 13.9483 12.8171H7.05173C3.17242 12.8171 0 16.1301 0 20.2215C0 20.6559 0.327581 20.9999 0.741372 20.9999ZM7.05173 14.374H13.9483C16.7758 14.374 19.1034 16.5827 19.4655 19.443H1.53448C1.89653 16.6008 4.22415 14.374 7.05173 14.374Z" fill="white"/>
</svg>
