<svg width="27" height="27" viewBox="0 0 27 27" fill="none" xmlns="http://www.w3.org/2000/svg">
<path d="M25.61 10.5H23.084C22.678 10.5 22.3435 10.2765 22.188 9.9015C22.0325 9.5265 22.1115 9.1315 22.398 8.8445L24.184 7.059C24.4465 6.7965 24.591 6.447 24.591 6.076C24.591 5.7045 24.4465 5.3555 24.184 5.0925L21.9075 2.816C21.3825 2.291 20.467 2.29 19.941 2.816L18.1555 4.6015C17.8685 4.888 17.4725 4.968 17.0985 4.812C16.7235 4.6565 16.5 4.322 16.5 3.916V1.39C16.5 0.6235 15.8765 0 15.11 0H11.89C11.1235 0 10.5 0.6235 10.5 1.39V3.916C10.5 4.322 10.2765 4.6565 9.9015 4.812C9.5275 4.9685 9.1315 4.888 8.8445 4.6015L7.059 2.816C6.533 2.29 5.6175 2.291 5.0925 2.816L2.816 5.0925C2.5535 5.355 2.409 5.7045 2.409 6.076C2.409 6.447 2.5535 6.796 2.816 7.059L4.602 8.8445C4.8885 9.1315 4.967 9.5265 4.812 9.9015C4.657 10.2765 4.322 10.5 3.916 10.5H1.39C0.6235 10.5 0 11.1235 0 11.89V15.1095C0 15.8765 0.6235 16.5 1.39 16.5H3.916C4.322 16.5 4.6565 16.7235 4.812 17.0985C4.9675 17.4735 4.8885 17.8685 4.602 18.1555L2.816 19.941C2.5535 20.2035 2.409 20.553 2.409 20.924C2.409 21.2955 2.5535 21.6445 2.816 21.9075L5.0925 24.184C5.618 24.7095 6.533 24.7105 7.059 24.184L8.8445 22.398C9.1315 22.1115 9.526 22.0325 9.9015 22.188C10.2765 22.3435 10.5 22.678 10.5 23.084V25.61C10.5 26.3765 11.1235 27 11.89 27H15.1095C15.876 27 16.4995 26.3765 16.4995 25.61V23.084C16.4995 22.678 16.723 22.3435 17.098 22.188C17.4735 22.032 17.868 22.1115 18.155 22.398L19.9405 24.184C20.4665 24.71 21.382 24.709 21.907 24.184L24.1835 21.9075C24.446 21.645 24.5905 21.2955 24.5905 20.924C24.5905 20.553 24.446 20.204 24.1835 19.941L22.3975 18.1555C22.111 17.8685 22.0325 17.4735 22.1875 17.0985C22.3425 16.7235 22.678 16.5 23.084 16.5H25.61C26.3765 16.5 27 15.8765 27 15.11V11.89C27 11.1235 26.3765 10.5 25.61 10.5ZM26 15.11C26 15.325 25.825 15.5 25.61 15.5H23.084C22.272 15.5 21.5745 15.966 21.264 16.716C20.953 17.466 21.1165 18.289 21.691 18.863L23.477 20.6485C23.6295 20.801 23.6295 21.0485 23.477 21.2005L21.2005 23.477C21.0485 23.629 20.801 23.63 20.6485 23.477L18.863 21.691C18.2885 21.1165 17.466 20.954 16.716 21.264C15.966 21.5745 15.5 22.272 15.5 23.084V25.61C15.5 25.825 15.325 26 15.11 26H11.89C11.675 26 11.5 25.825 11.5 25.61V23.084C11.5 22.272 11.034 21.5745 10.284 21.264C10.0325 21.1595 9.7735 21.1085 9.5175 21.1085C9.0105 21.1085 8.519 21.3085 8.137 21.6905L6.3515 23.4765C6.1985 23.6295 5.951 23.6285 5.7995 23.4765L3.523 21.2C3.3705 21.0475 3.3705 20.8 3.523 20.648L5.309 18.8625C5.883 18.2885 6.047 17.4655 5.736 16.7155C5.4255 15.966 4.728 15.5 3.916 15.5H1.39C1.175 15.5 1 15.325 1 15.11V11.89C1 11.675 1.175 11.5 1.39 11.5H3.916C4.728 11.5 5.4255 11.034 5.736 10.284C6.047 9.534 5.8835 8.711 5.309 8.137L3.523 6.3515C3.3705 6.199 3.3705 5.9515 3.523 5.7995L5.7995 3.523C5.9515 3.3705 6.199 3.3705 6.3515 3.523L8.137 5.3085C8.7105 5.882 9.533 6.0465 10.284 5.7355C11.034 5.4255 11.5 4.728 11.5 3.916V1.39C11.5 1.175 11.675 1 11.89 1H15.1095C15.325 1 15.5 1.175 15.5 1.39V3.916C15.5 4.728 15.966 5.4255 16.716 5.736C17.467 6.047 18.289 5.883 18.863 5.309L20.6485 3.5235C20.8015 3.371 21.049 3.371 21.2005 3.5235L23.477 5.8C23.6295 5.9525 23.6295 6.2 23.477 6.352L21.691 8.1375C21.117 8.7115 20.953 9.5345 21.264 10.2845C21.5745 11.0345 22.272 11.5005 23.084 11.5005H25.61C25.825 11.5 26 11.675 26 11.89V15.11Z" fill="white"/>
<path d="M13.5 9C11.0185 9 9 11.0185 9 13.5C9 15.9815 11.0185 18 13.5 18C15.9815 18 18 15.9815 18 13.5C18 11.0185 15.9815 9 13.5 9ZM13.5 17C11.5705 17 10 15.4295 10 13.5C10 11.5705 11.5705 10 13.5 10C15.4295 10 17 11.5705 17 13.5C17 15.4295 15.4295 17 13.5 17Z" fill="white"/>
</svg>
