<svg width="47" height="47" viewBox="0 0 47 47" fill="none" xmlns="http://www.w3.org/2000/svg">
<path d="M3 46.3475H44C45.1046 46.3475 46 45.4521 46 44.3475V8.23414C46 7.77527 45.8422 7.33034 45.5531 6.97401L41.3062 1.73986C40.9264 1.27182 40.3559 1 39.7531 1H3C1.89543 1 1 1.89543 1 3V44.3475C1 45.4521 1.89543 46.3475 3 46.3475Z" fill="none" stroke="black"/>
<path d="M7.0882 47V29.7518C7.0882 28.6472 7.98363 27.7518 9.0882 27.7518H38.4411C39.5457 27.7518 40.4411 28.6472 40.4411 29.7518V47" stroke="black"/>
<path d="M34.6176 1L34.6176 14.0071C34.6176 15.1117 33.7222 16.0071 32.6176 16.0071L13.3235 16.0071C12.2189 16.0071 11.3235 15.1117 11.3235 14.0071L11.3235 1.00001" stroke="black"/>
<rect x="24" y="4.10992" width="5.88235" height="8.78723" rx="1.5" fill="none" stroke="black"/>
</svg>
